<svg width="753" height="874" viewBox="0 0 753 874" fill="none" xmlns="http://www.w3.org/2000/svg">
<rect width="753" height="874" fill="white"/>
<path d="M170.281 439.393C169.749 439.393 169.238 439.181 168.862 438.805C168.485 438.429 168.274 437.918 168.274 437.386V380.748C168.274 380.215 168.485 379.705 168.862 379.328C169.238 378.952 169.749 378.74 170.281 378.74C170.814 378.74 171.324 378.952 171.701 379.328C172.077 379.705 172.289 380.215 172.289 380.748V437.384C172.289 437.648 172.237 437.909 172.136 438.152C172.036 438.396 171.888 438.618 171.701 438.804C171.515 438.991 171.294 439.139 171.05 439.24C170.806 439.341 170.545 439.393 170.281 439.393V439.393Z" fill="#262626"/>
<path d="M188.76 411.075H151.802C151.269 411.075 150.759 410.863 150.382 410.487C150.006 410.11 149.794 409.6 149.794 409.067C149.794 408.535 150.006 408.024 150.382 407.648C150.759 407.272 151.269 407.06 151.802 407.06H188.76C189.292 407.06 189.803 407.272 190.179 407.648C190.556 408.024 190.767 408.535 190.767 409.067C190.767 409.6 190.556 410.11 190.179 410.487C189.803 410.863 189.292 411.075 188.76 411.075V411.075Z" fill="#262626"/>
<path d="M655.496 581.354C655.12 581.354 654.76 581.205 654.494 580.94C654.229 580.674 654.08 580.314 654.08 579.938V549.561C654.089 549.191 654.242 548.841 654.507 548.583C654.771 548.325 655.126 548.181 655.495 548.181C655.864 548.181 656.219 548.325 656.484 548.583C656.748 548.841 656.901 549.191 656.911 549.561V579.938C656.911 580.124 656.874 580.308 656.803 580.48C656.732 580.652 656.628 580.808 656.496 580.94C656.365 581.071 656.209 581.175 656.037 581.247C655.866 581.318 655.681 581.354 655.496 581.354V581.354Z" fill="#262626"/>
<path d="M665.408 566.165H645.584C645.395 566.17 645.207 566.137 645.031 566.068C644.855 565.999 644.694 565.895 644.559 565.763C644.424 565.632 644.316 565.474 644.243 565.3C644.169 565.126 644.132 564.938 644.132 564.749C644.132 564.561 644.169 564.373 644.243 564.199C644.316 564.025 644.424 563.867 644.559 563.736C644.694 563.604 644.855 563.5 645.031 563.431C645.207 563.362 645.395 563.329 645.584 563.334H665.408C665.597 563.329 665.784 563.362 665.96 563.431C666.136 563.5 666.297 563.604 666.432 563.736C666.567 563.867 666.675 564.025 666.748 564.199C666.822 564.373 666.86 564.561 666.86 564.749C666.86 564.938 666.822 565.126 666.748 565.3C666.675 565.474 666.567 565.632 666.432 565.763C666.297 565.895 666.136 565.999 665.96 566.068C665.784 566.137 665.597 566.17 665.408 566.165V566.165Z" fill="#262626"/>
<path d="M594.042 228.465C593.856 228.465 593.672 228.429 593.5 228.358C593.328 228.286 593.172 228.182 593.041 228.051C592.909 227.919 592.805 227.763 592.734 227.591C592.663 227.419 592.626 227.235 592.626 227.049V196.671C592.626 196.296 592.775 195.936 593.041 195.67C593.306 195.405 593.666 195.255 594.042 195.255C594.418 195.255 594.778 195.405 595.043 195.67C595.309 195.936 595.458 196.296 595.458 196.671V227.049C595.458 227.425 595.309 227.785 595.043 228.051C594.778 228.316 594.418 228.465 594.042 228.465V228.465Z" fill="#262626"/>
<path d="M603.954 213.276H584.13C583.761 213.267 583.41 213.113 583.152 212.849C582.894 212.584 582.75 212.23 582.75 211.86C582.75 211.491 582.894 211.136 583.152 210.872C583.41 210.608 583.761 210.454 584.13 210.445H603.954C604.143 210.44 604.331 210.473 604.507 210.542C604.683 210.611 604.843 210.715 604.978 210.846C605.114 210.978 605.221 211.136 605.295 211.31C605.368 211.484 605.406 211.671 605.406 211.86C605.406 212.049 605.368 212.236 605.295 212.411C605.221 212.585 605.114 212.742 604.978 212.874C604.843 213.006 604.683 213.11 604.507 213.179C604.331 213.248 604.143 213.281 603.954 213.276Z" fill="#262626"/>
<path d="M692.477 695.941H184.566C184.201 695.941 183.851 695.796 183.592 695.538C183.334 695.279 183.189 694.929 183.189 694.564C183.189 694.198 183.334 693.848 183.592 693.59C183.851 693.331 184.201 693.186 184.566 693.186H692.477C692.842 693.186 693.192 693.331 693.451 693.59C693.709 693.848 693.854 694.198 693.854 694.564C693.854 694.929 693.709 695.279 693.451 695.538C693.192 695.796 692.842 695.941 692.477 695.941Z" fill="#262626"/>
<path d="M553.948 639.134H309.274C308.843 639.133 308.427 638.981 308.097 638.704C307.767 638.427 307.545 638.043 307.47 637.619L227.537 182.665H151.626C151.162 182.634 150.726 182.427 150.408 182.087C150.09 181.747 149.913 181.298 149.913 180.832C149.913 180.367 150.09 179.918 150.408 179.578C150.726 179.238 151.162 179.031 151.626 179H229.076C229.507 179.001 229.924 179.153 230.254 179.43C230.583 179.707 230.806 180.091 230.881 180.515L310.81 635.469H553.945C554.41 635.5 554.845 635.707 555.163 636.047C555.481 636.387 555.658 636.836 555.658 637.302C555.658 637.767 555.481 638.216 555.163 638.556C554.845 638.896 554.41 639.103 553.945 639.134H553.948Z" fill="#262626"/>
<path d="M588.494 513.125H286.928C286.678 513.142 286.426 513.107 286.189 513.022C285.952 512.938 285.735 512.806 285.551 512.634C285.367 512.462 285.221 512.254 285.121 512.024C285.02 511.793 284.969 511.544 284.969 511.292C284.969 511.041 285.02 510.792 285.121 510.561C285.221 510.33 285.367 510.123 285.551 509.951C285.735 509.779 285.952 509.647 286.189 509.562C286.426 509.478 286.678 509.443 286.928 509.46H587.103L645.69 300.008H251.103C250.639 299.977 250.203 299.77 249.885 299.43C249.567 299.09 249.39 298.641 249.39 298.176C249.39 297.71 249.567 297.261 249.885 296.921C250.203 296.581 250.639 296.374 251.103 296.343H648.106C648.389 296.343 648.668 296.409 648.921 296.534C649.174 296.66 649.395 296.843 649.566 297.068C649.737 297.293 649.853 297.555 649.906 297.833C649.959 298.111 649.946 298.397 649.87 298.669L590.258 511.787C590.149 512.171 589.918 512.51 589.6 512.752C589.282 512.993 588.893 513.124 588.494 513.125V513.125Z" fill="#262626"/>
<path d="M444.794 511.328C444.307 511.328 443.84 511.134 443.495 510.79C443.151 510.445 442.957 509.978 442.957 509.491V301.775C442.99 301.311 443.197 300.878 443.537 300.561C443.877 300.244 444.325 300.068 444.789 300.068C445.254 300.068 445.701 300.244 446.041 300.561C446.381 300.878 446.588 301.311 446.621 301.775V509.491C446.621 509.977 446.429 510.442 446.087 510.787C445.744 511.131 445.279 511.325 444.794 511.328Z" fill="#262626"/>
<path d="M494.825 511.328C494.772 511.328 494.717 511.328 494.664 511.32C494.424 511.3 494.191 511.232 493.978 511.121C493.764 511.01 493.574 510.858 493.42 510.674C493.265 510.49 493.148 510.277 493.075 510.048C493.003 509.818 492.976 509.577 492.997 509.337L511.013 301.621C511.033 301.38 511.1 301.146 511.21 300.931C511.321 300.716 511.473 300.526 511.657 300.37C511.841 300.214 512.055 300.096 512.285 300.023C512.515 299.95 512.757 299.923 512.998 299.944C513.238 299.965 513.472 300.033 513.686 300.145C513.9 300.256 514.09 300.409 514.245 300.594C514.4 300.78 514.516 300.994 514.588 301.224C514.66 301.455 514.686 301.697 514.663 301.937L496.648 509.654C496.608 510.11 496.399 510.535 496.062 510.845C495.724 511.155 495.283 511.327 494.825 511.328V511.328Z" fill="#262626"/>
<path d="M544.854 511.328C544.748 511.328 544.642 511.319 544.538 511.3C544.301 511.259 544.074 511.172 543.871 511.043C543.668 510.914 543.492 510.747 543.353 510.55C543.215 510.353 543.117 510.131 543.064 509.896C543.011 509.662 543.005 509.419 543.047 509.182L579.078 301.465C579.164 300.99 579.435 300.567 579.831 300.29C580.228 300.013 580.717 299.905 581.194 299.987C581.67 300.07 582.095 300.338 582.374 300.732C582.654 301.127 582.767 301.616 582.687 302.093L546.657 509.809C546.582 510.233 546.361 510.618 546.031 510.896C545.702 511.173 545.285 511.326 544.854 511.328Z" fill="#262626"/>
<path d="M394.763 511.328C394.305 511.327 393.863 511.155 393.526 510.845C393.188 510.535 392.979 510.11 392.94 509.654L374.924 301.937C374.885 301.455 375.038 300.976 375.351 300.606C375.663 300.237 376.109 300.005 376.592 299.964C377.074 299.922 377.553 300.073 377.925 300.383C378.296 300.694 378.53 301.138 378.574 301.621L396.59 509.337C396.611 509.577 396.585 509.818 396.512 510.048C396.44 510.277 396.323 510.49 396.168 510.674C396.013 510.858 395.824 511.01 395.61 511.121C395.397 511.232 395.163 511.3 394.923 511.32C394.87 511.32 394.816 511.328 394.763 511.328Z" fill="#262626"/>
<path d="M344.734 511.328C344.302 511.327 343.885 511.175 343.555 510.897C343.226 510.619 343.005 510.234 342.931 509.809L306.275 298.489C306.232 298.251 306.236 298.007 306.288 297.771C306.339 297.535 306.437 297.312 306.576 297.113C306.714 296.915 306.89 296.746 307.094 296.617C307.298 296.487 307.526 296.399 307.764 296.358C308.002 296.316 308.246 296.322 308.482 296.376C308.718 296.429 308.94 296.528 309.138 296.668C309.335 296.808 309.502 296.986 309.63 297.19C309.759 297.395 309.845 297.624 309.885 297.862L346.541 509.177C346.582 509.414 346.576 509.657 346.524 509.892C346.471 510.127 346.373 510.349 346.234 510.545C346.096 510.742 345.92 510.91 345.717 511.038C345.513 511.167 345.287 511.255 345.05 511.296C344.945 511.316 344.84 511.327 344.734 511.328Z" fill="#262626"/>
<path d="M628.863 368.599H262.27C262.019 368.616 261.767 368.581 261.53 368.497C261.293 368.413 261.076 368.28 260.892 368.109C260.708 367.937 260.562 367.729 260.462 367.498C260.362 367.267 260.31 367.019 260.31 366.767C260.31 366.515 260.362 366.267 260.462 366.036C260.562 365.805 260.708 365.597 260.892 365.426C261.076 365.254 261.293 365.122 261.53 365.037C261.767 364.953 262.019 364.918 262.27 364.935H628.863C629.328 364.966 629.764 365.172 630.082 365.513C630.4 365.853 630.577 366.301 630.577 366.767C630.577 367.233 630.4 367.681 630.082 368.021C629.764 368.362 629.328 368.568 628.863 368.599Z" fill="#262626"/>
<path d="M609.307 440.663H276.107C275.643 440.632 275.207 440.425 274.889 440.085C274.571 439.745 274.394 439.296 274.394 438.83C274.394 438.365 274.571 437.916 274.889 437.576C275.207 437.236 275.643 437.029 276.107 436.998H609.307C609.771 437.029 610.207 437.236 610.525 437.576C610.843 437.916 611.02 438.365 611.02 438.83C611.02 439.296 610.843 439.745 610.525 440.085C610.207 440.425 609.771 440.632 609.307 440.663Z" fill="#262626"/>
<path d="M336.03 642.427C340.741 642.427 345.346 643.824 349.263 646.441C353.18 649.059 356.233 652.779 358.036 657.131C359.839 661.484 360.31 666.273 359.391 670.893C358.472 675.514 356.203 679.758 352.871 683.089C349.54 686.42 345.296 688.688 340.675 689.607C336.055 690.525 331.266 690.053 326.913 688.25C322.561 686.447 318.841 683.394 316.224 679.476C313.608 675.559 312.211 670.954 312.212 666.243C312.219 659.928 314.73 653.874 319.196 649.408C323.661 644.943 329.715 642.431 336.03 642.424M336.03 638.76C330.595 638.76 325.281 640.372 320.762 643.392C316.242 646.412 312.72 650.704 310.64 655.726C308.56 660.747 308.015 666.273 309.076 671.604C310.136 676.935 312.754 681.832 316.597 685.676C320.441 689.519 325.338 692.137 330.669 693.197C336 694.258 341.525 693.713 346.547 691.633C351.569 689.553 355.861 686.031 358.881 681.511C361.901 676.992 363.513 671.678 363.513 666.243C363.512 658.954 360.617 651.964 355.463 646.81C350.309 641.656 343.319 638.76 336.03 638.76Z" fill="#262626"/>
<path d="M524.163 642.267C528.874 642.267 533.479 643.664 537.396 646.281C541.313 648.899 544.366 652.618 546.169 656.971C547.971 661.323 548.443 666.112 547.524 670.732C546.605 675.353 544.336 679.597 541.005 682.928C537.674 686.259 533.43 688.527 528.81 689.447C524.19 690.366 519.4 689.894 515.048 688.091C510.696 686.288 506.976 683.235 504.359 679.319C501.742 675.402 500.345 670.797 500.345 666.086C500.351 659.771 502.863 653.717 507.328 649.251C511.793 644.786 517.847 642.274 524.162 642.267M524.162 638.603C518.727 638.603 513.413 640.215 508.894 643.235C504.375 646.255 500.852 650.547 498.772 655.569C496.692 660.591 496.148 666.117 497.209 671.448C498.269 676.779 500.887 681.676 504.73 685.519C508.574 689.362 513.471 691.98 518.802 693.04C524.133 694.101 529.659 693.556 534.68 691.476C539.702 689.396 543.994 685.874 547.014 681.354C550.034 676.835 551.646 671.521 551.646 666.086C551.646 662.477 550.935 658.903 549.554 655.568C548.173 652.234 546.148 649.204 543.597 646.652C541.045 644.1 538.015 642.076 534.68 640.694C531.346 639.313 527.772 638.602 524.163 638.602L524.162 638.603Z" fill="#262626"/>
<path opacity="0.1" d="M202.498 693.568C135.618 693.568 87.0846 625.644 106.354 558.09C117.25 519.889 138.898 482.611 180.065 460.003C292.719 398.133 282.795 415.099 335.898 311.131C389.001 207.164 524.507 195.93 599.919 269.166C706.582 372.748 643.247 441.837 710.747 513.035C711.449 513.777 712.143 514.523 712.828 515.272C773.813 582.069 727.922 693.57 640.008 693.57L202.498 693.568Z" fill="#04005E"/>
<path d="M233.539 581.316H70.0632C69.6979 581.316 69.3476 581.171 69.0892 580.912C68.8309 580.654 68.6858 580.304 68.6858 579.938C68.6858 579.573 68.8309 579.223 69.0892 578.964C69.3476 578.706 69.6979 578.561 70.0632 578.561H233.539C233.905 578.561 234.255 578.706 234.513 578.964C234.772 579.223 234.917 579.573 234.917 579.938C234.917 580.304 234.772 580.654 234.513 580.912C234.255 581.171 233.905 581.316 233.539 581.316V581.316Z" fill="#262626"/>
<path d="M90.8138 643.804H13.3774C13.0121 643.804 12.6618 643.659 12.4034 643.401C12.1451 643.143 12 642.792 12 642.427C12 642.062 12.1451 641.711 12.4034 641.453C12.6618 641.195 13.0121 641.05 13.3774 641.05H90.8138C91.1791 641.05 91.5294 641.195 91.7877 641.453C92.0461 641.711 92.1912 642.062 92.1912 642.427C92.1912 642.792 92.0461 643.143 91.7877 643.401C91.5294 643.659 91.1791 643.804 90.8138 643.804V643.804Z" fill="#262626"/>
</svg>
