<svg width="275" height="62" viewBox="0 0 275 62" fill="none" xmlns="http://www.w3.org/2000/svg">
<path d="M190.94 10.6786H220.57V0.0686035L190.94 0.118604C182.943 0.524752 175.422 4.04564 169.988 9.92754C164.554 15.8094 161.639 23.5849 161.866 31.5894C162.094 39.5939 165.446 47.1913 171.205 52.7551C176.964 58.319 184.672 61.4072 192.68 61.3586L209.42 61.2986H220.57C220.57 51.4119 220.57 41.5286 220.57 31.6486H209.42V50.6486L190.94 50.7186C185.914 50.2982 181.23 48.0047 177.816 44.2929C174.401 40.5811 172.506 35.7219 172.506 30.6786C172.506 25.6353 174.401 20.7761 177.816 17.0643C181.23 13.3525 185.914 11.059 190.94 10.6386V10.6786Z" fill="white"/>
<path d="M172.39 0.0685662H158.1L139.6 22.1486L121.11 0.0685662H106.82L132.46 30.6786L117.13 48.9786L117.2 30.7186C117.216 23.3572 114.583 16.2357 109.781 10.6562C104.979 5.07674 98.329 1.41193 91.0473 0.331801C83.7655 -0.748325 76.3383 0.828399 70.1234 4.77371C63.9085 8.71903 59.3211 14.7694 57.2 21.8186C55.3756 15.8159 51.7543 10.5171 46.8244 6.63688C41.8945 2.75663 35.8933 0.481579 29.63 0.118566V0.0685662H0V10.6786H29.63C34.6557 11.099 39.34 13.3924 42.7543 17.1043C46.1686 20.8161 48.0635 25.6753 48.0635 30.7186C48.0635 35.7619 46.1686 40.6211 42.7543 44.3329C39.34 48.0447 34.6557 50.3381 29.63 50.7586V50.6886H10.63V25.4086H0V61.1486H31.46C36.7456 60.5275 41.7785 58.5412 46.0637 55.3852C50.3489 52.2291 53.7388 48.012 55.9 43.1486V61.1486H66.51V28.9686C66.9304 23.9428 69.2239 19.2585 72.9357 15.8443C76.6475 12.43 81.5067 10.535 86.55 10.535C91.5933 10.535 96.4525 12.43 100.164 15.8443C103.876 19.2585 106.17 23.9428 106.59 28.9686L106.52 61.1486H121.23L139.6 39.2186L158 61.1486H172.29L146.75 30.6786L172.39 0.0685662Z" fill="white"/>
<path d="M101.36 25.4086H71.73V36.0186H101.36V25.4086Z" fill="white"/>
<path d="M243.61 0.0686035C236.403 0.0701382 229.427 2.61122 223.908 7.24546C218.388 11.8797 214.679 18.3107 213.43 25.4086H190.94V36.0686H213.43C214.45 41.8089 217.086 47.1391 221.03 51.4333C224.973 55.7276 230.06 58.8075 235.693 60.3115C241.326 61.8156 247.271 61.6812 252.831 59.9244C258.39 58.1675 263.332 54.861 267.078 50.3931C270.824 45.9251 273.217 40.4813 273.976 34.7008C274.736 28.9202 273.831 23.0429 271.366 17.759C268.902 12.475 264.982 8.0038 260.065 4.87026C255.149 1.73672 249.44 0.070976 243.61 0.0686035V0.0686035ZM243.61 50.8386C239.628 50.8406 235.734 49.6614 232.423 47.4503C229.111 45.2391 226.529 42.0953 225.004 38.4166C223.479 34.738 223.08 30.6897 223.856 26.7839C224.633 22.8781 226.55 19.2904 229.366 16.4745C232.182 13.6587 235.769 11.7413 239.675 10.9649C243.581 10.1885 247.629 10.588 251.308 12.1128C254.987 13.6377 258.13 16.2193 260.342 19.5312C262.553 22.8431 263.732 26.7364 263.73 30.7186C263.73 36.0548 261.61 41.1724 257.837 44.9456C254.064 48.7188 248.946 50.8386 243.61 50.8386Z" fill="#E92EFB"/>
<path d="M257.83 16.4886C261.598 20.2504 263.72 25.3537 263.729 30.6783C263.739 36.0028 261.635 41.1136 257.88 44.8886L265.35 52.3086C271.056 46.5557 274.253 38.7772 274.239 30.6742C274.226 22.5711 271.005 14.803 265.28 9.0686L257.83 16.4886Z" fill="#001DF2"/>
<path d="M251.88 12.3786C254.098 13.3727 256.115 14.7658 257.83 16.4886L265.28 9.06858C262.659 6.44986 259.586 4.3258 256.21 2.79858L251.88 12.3786Z" fill="#00F0FF"/>
</svg>
