<svg width="764" height="875" viewBox="0 0 764 875" fill="none" xmlns="http://www.w3.org/2000/svg">
<path d="M160.528 694.238C160.082 694.238 159.654 694.06 159.338 693.745C159.023 693.429 158.846 693.001 158.846 692.555V679.413C158.846 672.155 155.963 665.195 150.831 660.063C145.699 654.931 138.738 652.048 131.481 652.048C124.223 652.048 117.263 654.931 112.131 660.063C106.999 665.195 104.116 672.155 104.116 679.413V692.555C104.116 693.001 103.938 693.429 103.623 693.745C103.307 694.061 102.879 694.238 102.433 694.238C101.986 694.238 101.558 694.061 101.243 693.745C100.927 693.429 100.75 693.001 100.75 692.555V679.413C100.727 675.363 101.504 671.348 103.038 667.599C104.572 663.85 106.832 660.442 109.688 657.57C112.544 654.697 115.94 652.418 119.68 650.863C123.419 649.307 127.43 648.507 131.48 648.507C135.531 648.507 139.541 649.307 143.281 650.863C147.021 652.418 150.416 654.697 153.272 657.57C156.128 660.442 158.388 663.85 159.922 667.599C161.456 671.348 162.234 675.363 162.211 679.413V692.555C162.211 693.001 162.033 693.429 161.718 693.745C161.402 694.061 160.974 694.238 160.528 694.238V694.238Z" fill="#494945"/>
<path d="M200.387 681.198H164.977V872.312H200.387V681.198Z" fill="#E92EFB"/>
<path opacity="0.21" d="M200.387 681.198H164.977V872.312H200.387V681.198Z" fill="#0A0A0A"/>
<path d="M164.977 681.198H27.1548V872.312H164.977V681.198Z" fill="#E92EFB"/>
<path d="M125.115 694.238C124.669 694.238 124.241 694.06 123.925 693.745C123.61 693.429 123.433 693.001 123.433 692.555V679.413C123.455 675.805 122.763 672.229 121.397 668.89C120.032 665.55 118.02 662.514 115.476 659.955C112.933 657.397 109.909 655.366 106.578 653.981C103.247 652.595 99.675 651.882 96.0673 651.882C92.4596 651.882 88.8876 652.595 85.5566 653.981C82.2256 655.366 79.2015 657.397 76.6582 659.955C74.1149 662.514 72.1027 665.55 70.7372 668.89C69.3717 672.229 68.68 675.805 68.7018 679.413V692.555C68.7073 692.779 68.6678 693.003 68.5857 693.212C68.5036 693.42 68.3806 693.611 68.2238 693.771C68.067 693.932 67.8797 694.06 67.6728 694.147C67.466 694.234 67.2438 694.279 67.0193 694.279C66.7948 694.279 66.5726 694.234 66.3658 694.147C66.1589 694.06 65.9716 693.932 65.8148 693.771C65.6581 693.611 65.535 693.42 65.4529 693.212C65.3708 693.003 65.3313 692.779 65.3368 692.555V679.413C65.3137 675.363 66.0915 671.348 67.6255 667.599C69.1595 663.85 71.4194 660.442 74.2753 657.57C77.1312 654.697 80.5267 652.418 84.2666 650.863C88.0065 649.307 92.0169 648.507 96.0673 648.507C100.118 648.507 104.128 649.307 107.868 650.863C111.608 652.418 115.003 654.697 117.859 657.57C120.715 660.442 122.975 663.85 124.509 667.599C126.043 671.348 126.821 675.363 126.798 679.413V692.555C126.798 693.001 126.62 693.429 126.305 693.745C125.989 694.061 125.561 694.238 125.115 694.238Z" fill="#494945"/>
<path opacity="0.11" d="M164.977 681.198L182.682 700.266L200.386 681.198H164.977Z" fill="#0A0A0A"/>
<path opacity="0.11" d="M164.977 872.312L182.682 853.244L200.386 872.312H164.977Z" fill="#0A0A0A"/>
<path d="M552.204 0H258.935C234.674 0 215.007 19.6672 215.007 43.928V733.336C215.007 757.597 234.674 777.264 258.935 777.264H552.204C576.465 777.264 596.132 757.597 596.132 733.336V43.928C596.132 19.6672 576.465 0 552.204 0Z" fill="#292A2E"/>
<path d="M552.066 13.717H259.073C242.414 13.717 228.909 27.2219 228.909 43.881V732.358C228.909 749.017 242.414 762.522 259.073 762.522H552.066C568.725 762.522 582.23 749.017 582.23 732.358V43.881C582.23 27.2219 568.725 13.717 552.066 13.717Z" fill="white"/>
<path d="M333.207 8.04601H477.928V23.021C477.928 27.3152 476.222 31.4336 473.186 34.4705C470.15 37.5073 466.032 39.2139 461.738 39.215H349.401C345.106 39.215 340.987 37.5089 337.95 34.4719C334.913 31.4349 333.207 27.3159 333.207 23.021V8.04601Z" fill="#292A2E"/>
<g opacity="0.15">
<path d="M550.509 244.9H260.628C256.621 244.895 252.78 243.302 249.947 240.469C247.114 237.636 245.52 233.795 245.516 229.788V76.869C245.52 72.8624 247.114 69.0213 249.947 66.1882C252.78 63.3551 256.621 61.7615 260.628 61.757H550.509C554.515 61.7615 558.357 63.3551 561.19 66.1882C564.023 69.0213 565.616 72.8624 565.621 76.869V229.788C565.616 233.795 564.023 237.636 561.19 240.469C558.357 243.302 554.515 244.895 550.509 244.9V244.9ZM260.628 63.757C257.152 63.7615 253.82 65.1445 251.362 67.6025C248.904 70.0606 247.522 73.3931 247.518 76.869V229.788C247.522 233.264 248.904 236.597 251.362 239.055C253.819 241.513 257.152 242.896 260.628 242.9H550.509C553.985 242.896 557.318 241.514 559.776 239.055C562.235 236.597 563.617 233.264 563.621 229.788V76.869C563.617 73.3927 562.234 70.0599 559.776 67.6018C557.318 65.1437 553.985 63.761 550.509 63.757H260.628Z" fill="#292A2E"/>
</g>
<g opacity="0.43">
<path d="M412.394 104.704C417.58 104.704 421.785 100.5 421.785 95.313C421.785 90.1265 417.58 85.922 412.394 85.922C407.207 85.922 403.003 90.1265 403.003 95.313C403.003 100.5 407.207 104.704 412.394 104.704Z" fill="#E92EFB"/>
<path d="M442.394 104.704C447.58 104.704 451.785 100.5 451.785 95.313C451.785 90.1265 447.58 85.922 442.394 85.922C437.207 85.922 433.003 90.1265 433.003 95.313C433.003 100.5 437.207 104.704 442.394 104.704Z" fill="#E92EFB"/>
<path d="M472.394 104.704C477.58 104.704 481.785 100.5 481.785 95.313C481.785 90.1265 477.58 85.922 472.394 85.922C467.207 85.922 463.003 90.1265 463.003 95.313C463.003 100.5 467.207 104.704 472.394 104.704Z" fill="#E92EFB"/>
<path d="M502.394 104.704C507.58 104.704 511.785 100.5 511.785 95.313C511.785 90.1265 507.58 85.922 502.394 85.922C497.207 85.922 493.003 90.1265 493.003 95.313C493.003 100.5 497.207 104.704 502.394 104.704Z" fill="#E92EFB"/>
<path d="M532.394 104.704C537.58 104.704 541.785 100.5 541.785 95.313C541.785 90.1265 537.58 85.922 532.394 85.922C527.207 85.922 523.003 90.1265 523.003 95.313C523.003 100.5 527.207 104.704 532.394 104.704Z" fill="#E92EFB"/>
</g>
<g opacity="0.15">
<path d="M541.785 124.366H405.569V126.366H541.785V124.366Z" fill="#292A2E"/>
</g>
<g opacity="0.15">
<path d="M541.785 144.366H405.569V146.366H541.785V144.366Z" fill="#292A2E"/>
</g>
<g opacity="0.15">
<path d="M477.931 164.366H405.569V166.366H477.931V164.366Z" fill="#292A2E"/>
</g>
<g opacity="0.15">
<path d="M542.785 218.921H496.263V204.105H542.785V218.921ZM498.263 216.921H540.785V206.105H498.263V216.921Z" fill="#292A2E"/>
</g>
<path d="M477.63 205.104H433.108V217.92H477.63V205.104Z" fill="#001DF2"/>
<path d="M369.952 112.4C367.791 106.872 360.61 103.476 347.401 99.324C346.983 99.193 345.684 98.875 344.371 98.562C343.971 98.4666 343.555 98.4611 343.153 98.5459C342.75 98.6307 342.372 98.8037 342.044 99.0524C341.717 99.301 341.449 99.6192 341.259 99.984C341.07 100.349 340.963 100.751 340.948 101.162C340.948 101.162 339.348 108.128 327.594 108.128C313.694 108.128 311.794 101.162 311.794 101.162C311.778 100.751 311.672 100.349 311.482 99.984C311.293 99.6192 311.025 99.301 310.697 99.0524C310.37 98.8037 309.991 98.6307 309.589 98.5459C309.187 98.4611 308.771 98.4666 308.371 98.562C307.057 98.875 305.758 99.193 305.34 99.324C292.131 103.476 284.951 106.872 282.79 112.4C275.204 131.8 263.648 192.816 263.648 192.816L280.857 197.33L295.327 146.13C297.392 153.809 298.049 177.264 298.049 177.264H314.535H338.206H354.249C354.249 177.264 355.349 153.809 357.414 146.13L371.884 197.33L389.093 192.816C389.093 192.816 377.537 131.8 369.952 112.4Z" fill="#E92EFB"/>
<path opacity="0.48" d="M369.952 112.4C367.791 106.872 360.61 103.476 347.401 99.324C346.983 99.193 345.684 98.875 344.371 98.562C343.971 98.4666 343.555 98.4611 343.153 98.5459C342.75 98.6307 342.372 98.8037 342.044 99.0524C341.717 99.301 341.449 99.6192 341.259 99.984C341.07 100.349 340.963 100.751 340.948 101.162C340.948 101.162 339.348 108.128 327.594 108.128C313.694 108.128 311.794 101.162 311.794 101.162C311.778 100.751 311.672 100.349 311.482 99.984C311.293 99.6192 311.025 99.301 310.697 99.0524C310.37 98.8037 309.991 98.6307 309.589 98.5459C309.187 98.4611 308.771 98.4666 308.371 98.562C307.057 98.875 305.758 99.193 305.34 99.324C292.131 103.476 284.951 106.872 282.79 112.4C275.204 131.8 263.648 192.816 263.648 192.816L280.857 197.33L295.327 146.13C297.392 153.809 298.049 177.264 298.049 177.264H314.535H338.206H354.249C354.249 177.264 355.349 153.809 357.414 146.13L371.884 197.33L389.093 192.816C389.093 192.816 377.537 131.8 369.952 112.4Z" fill="white"/>
<g opacity="0.15">
<path d="M550.509 460.232H260.628C256.621 460.227 252.78 458.634 249.947 455.801C247.114 452.968 245.521 449.127 245.516 445.121V292.2C245.521 288.194 247.115 284.353 249.948 281.52C252.781 278.688 256.622 277.094 260.628 277.09H550.509C554.515 277.094 558.356 278.688 561.189 281.52C564.022 284.353 565.616 288.194 565.621 292.2V445.121C565.616 449.127 564.022 452.968 561.189 455.801C558.356 458.634 554.515 460.227 550.509 460.232ZM260.628 279.09C257.152 279.094 253.82 280.477 251.363 282.935C248.905 285.392 247.522 288.724 247.518 292.2V445.121C247.522 448.597 248.904 451.929 251.362 454.387C253.82 456.845 257.152 458.228 260.628 458.232H550.509C553.985 458.228 557.318 456.846 559.776 454.388C562.234 451.93 563.617 448.597 563.621 445.121V292.2C563.617 288.724 562.234 285.391 559.776 282.933C557.318 280.475 553.985 279.092 550.509 279.088L260.628 279.09Z" fill="#292A2E"/>
</g>
<g opacity="0.43">
<path d="M412.394 320.037C417.58 320.037 421.785 315.833 421.785 310.646C421.785 305.459 417.58 301.255 412.394 301.255C407.207 301.255 403.003 305.459 403.003 310.646C403.003 315.833 407.207 320.037 412.394 320.037Z" fill="#E92EFB"/>
<path d="M442.394 320.037C447.58 320.037 451.785 315.833 451.785 310.646C451.785 305.459 447.58 301.255 442.394 301.255C437.207 301.255 433.003 305.459 433.003 310.646C433.003 315.833 437.207 320.037 442.394 320.037Z" fill="#E92EFB"/>
<path d="M472.394 320.037C477.58 320.037 481.785 315.833 481.785 310.646C481.785 305.459 477.58 301.255 472.394 301.255C467.207 301.255 463.003 305.459 463.003 310.646C463.003 315.833 467.207 320.037 472.394 320.037Z" fill="#E92EFB"/>
<path d="M502.394 320.037C507.58 320.037 511.785 315.833 511.785 310.646C511.785 305.459 507.58 301.255 502.394 301.255C497.207 301.255 493.003 305.459 493.003 310.646C493.003 315.833 497.207 320.037 502.394 320.037Z" fill="#E92EFB"/>
<path d="M532.394 320.037C537.58 320.037 541.785 315.833 541.785 310.646C541.785 305.459 537.58 301.255 532.394 301.255C527.207 301.255 523.003 305.459 523.003 310.646C523.003 315.833 527.207 320.037 532.394 320.037Z" fill="#E92EFB"/>
</g>
<g opacity="0.15">
<path d="M541.785 339.698H405.569V341.698H541.785V339.698Z" fill="#292A2E"/>
</g>
<g opacity="0.15">
<path d="M541.785 359.698H405.569V361.698H541.785V359.698Z" fill="#292A2E"/>
</g>
<g opacity="0.15">
<path d="M477.931 379.698H405.569V381.698H477.931V379.698Z" fill="#292A2E"/>
</g>
<g opacity="0.15">
<path d="M542.785 434.253H496.263V419.437H542.785V434.253ZM498.263 432.253H540.785V421.437H498.263V432.253Z" fill="#292A2E"/>
</g>
<path d="M477.63 420.437H433.108V433.253H477.63V420.437Z" fill="#001DF2"/>
<path opacity="0.48" d="M369.166 336.228C365.922 332.214 358.774 329.653 350.422 327.623C347.028 326.8 344.728 326.49 344.728 326.49C342.041 333.301 333.734 338.231 326.412 338.232H325.904C318.582 338.232 310.704 333.301 308.015 326.49C308.015 326.49 305.715 326.799 302.315 327.623C293.964 329.653 286.815 332.214 283.572 336.228C278.586 342.395 271.608 365.609 271.608 365.609L291.839 374.039C291.995 374.46 292.148 374.881 292.299 375.304C292.407 375.606 292.514 375.908 292.619 376.209C292.609 376.179 292.598 376.15 292.588 376.12C292.613 376.19 292.638 376.262 292.661 376.333C296.124 386.559 298.526 397.115 299.829 407.833C299.916 407.805 352.815 407.805 352.901 407.833C354.204 397.115 356.606 386.559 360.07 376.333V376.333C360.094 376.262 360.118 376.191 360.144 376.12C360.239 375.848 360.335 375.576 360.432 375.304C360.583 374.882 360.736 374.46 360.892 374.039L381.123 365.609C381.123 365.609 374.152 342.4 369.166 336.228Z" fill="white"/>
<path d="M369.166 336.228C365.922 332.214 358.774 329.653 350.422 327.623C347.028 326.8 344.728 326.49 344.728 326.49C342.041 333.301 333.734 338.231 326.412 338.232H325.904C318.582 338.232 310.704 333.301 308.015 326.49C308.015 326.49 305.715 326.799 302.315 327.623C293.964 329.653 286.815 332.214 283.572 336.228C278.586 342.395 271.608 365.609 271.608 365.609L291.839 374.039C291.995 374.46 292.148 374.881 292.299 375.304C292.407 375.606 292.514 375.908 292.619 376.209C292.609 376.179 292.598 376.15 292.588 376.12C292.613 376.19 292.638 376.262 292.661 376.333C296.124 386.559 298.526 397.115 299.829 407.833C299.916 407.805 352.815 407.805 352.901 407.833C354.204 397.115 356.606 386.559 360.07 376.333V376.333C360.094 376.262 360.118 376.191 360.144 376.12C360.239 375.848 360.335 375.576 360.432 375.304C360.583 374.882 360.736 374.46 360.892 374.039L381.123 365.609C381.123 365.609 374.152 342.4 369.166 336.228Z" fill="#E92EFB"/>
<path opacity="0.48" d="M369.166 336.228C365.922 332.214 358.774 329.653 350.422 327.623C347.028 326.8 344.728 326.49 344.728 326.49C342.041 333.301 333.734 338.231 326.412 338.232H325.904C318.582 338.232 310.704 333.301 308.015 326.49C308.015 326.49 305.715 326.799 302.315 327.623C293.964 329.653 286.815 332.214 283.572 336.228C278.586 342.395 271.608 365.609 271.608 365.609L291.839 374.039C291.995 374.46 292.148 374.881 292.299 375.304C292.407 375.606 292.514 375.908 292.619 376.209C292.609 376.179 292.598 376.15 292.588 376.12C292.613 376.19 292.638 376.262 292.661 376.333C296.124 386.559 298.526 397.115 299.829 407.833C299.916 407.805 352.815 407.805 352.901 407.833C354.204 397.115 356.606 386.559 360.07 376.333V376.333C360.094 376.262 360.118 376.191 360.144 376.12C360.239 375.848 360.335 375.576 360.432 375.304C360.583 374.882 360.736 374.46 360.892 374.039L381.123 365.609C381.123 365.609 374.152 342.4 369.166 336.228Z" fill="white"/>
<g opacity="0.15">
<path d="M550.509 672.564H260.628C256.621 672.559 252.78 670.965 249.947 668.132C247.114 665.299 245.52 661.458 245.516 657.451V504.532C245.521 500.526 247.114 496.685 249.947 493.852C252.78 491.019 256.621 489.425 260.628 489.421H550.509C554.515 489.425 558.356 491.019 561.189 493.852C564.022 496.685 565.616 500.526 565.621 504.532V657.451C565.616 661.458 564.023 665.299 561.19 668.132C558.357 670.965 554.516 672.559 550.509 672.564V672.564ZM260.628 491.421C257.152 491.425 253.819 492.808 251.361 495.265C248.903 497.723 247.52 501.056 247.516 504.532V657.451C247.52 660.927 248.902 664.261 251.36 666.719C253.818 669.177 257.151 670.56 260.628 670.564H550.509C553.985 670.56 557.318 669.177 559.776 666.719C562.235 664.261 563.617 660.927 563.621 657.451V504.532C563.617 501.056 562.234 497.723 559.776 495.265C557.318 492.808 553.985 491.425 550.509 491.421H260.628Z" fill="#292A2E"/>
</g>
<g opacity="0.43">
<path d="M412.394 532.367C417.58 532.367 421.785 528.163 421.785 522.976C421.785 517.79 417.58 513.585 412.394 513.585C407.207 513.585 403.003 517.79 403.003 522.976C403.003 528.163 407.207 532.367 412.394 532.367Z" fill="#E92EFB"/>
<path d="M442.394 532.367C447.58 532.367 451.785 528.163 451.785 522.976C451.785 517.79 447.58 513.585 442.394 513.585C437.207 513.585 433.003 517.79 433.003 522.976C433.003 528.163 437.207 532.367 442.394 532.367Z" fill="#E92EFB"/>
<path d="M472.394 532.367C477.58 532.367 481.785 528.163 481.785 522.976C481.785 517.79 477.58 513.585 472.394 513.585C467.207 513.585 463.003 517.79 463.003 522.976C463.003 528.163 467.207 532.367 472.394 532.367Z" fill="#E92EFB"/>
<path d="M502.394 532.367C507.58 532.367 511.785 528.163 511.785 522.976C511.785 517.79 507.58 513.585 502.394 513.585C497.207 513.585 493.003 517.79 493.003 522.976C493.003 528.163 497.207 532.367 502.394 532.367Z" fill="#E92EFB"/>
<path d="M532.394 532.367C537.58 532.367 541.785 528.163 541.785 522.976C541.785 517.79 537.58 513.585 532.394 513.585C527.207 513.585 523.003 517.79 523.003 522.976C523.003 528.163 527.207 532.367 532.394 532.367Z" fill="#E92EFB"/>
</g>
<g opacity="0.15">
<path d="M541.785 552.029H405.569V554.029H541.785V552.029Z" fill="#292A2E"/>
</g>
<g opacity="0.15">
<path d="M541.785 572.029H405.569V574.029H541.785V572.029Z" fill="#292A2E"/>
</g>
<g opacity="0.15">
<path d="M477.931 592.029H405.569V594.029H477.931V592.029Z" fill="#292A2E"/>
</g>
<g opacity="0.15">
<path d="M542.785 646.584H496.263V631.768H542.785V646.584ZM498.263 644.584H540.785V633.768H498.263V644.584Z" fill="#292A2E"/>
</g>
<path d="M477.63 632.767H433.108V645.583H477.63V632.767Z" fill="#001DF2"/>
<path opacity="0.48" d="M354.25 633.757C354.786 633.755 355.314 633.632 355.795 633.396C356.276 633.161 356.698 632.819 357.027 632.396C357.357 631.974 357.586 631.482 357.697 630.958C357.809 630.434 357.8 629.891 357.671 629.371C354.079 614.437 353.806 586.324 356.905 574.241L360.335 560.87L360.329 560.807C360.389 560.349 360.344 559.884 360.198 559.446C360.053 559.008 359.81 558.609 359.488 558.278C346.519 544.969 348.228 531.3 348.228 531.3H342.638C343.001 534.521 342.79 537.781 342.015 540.928C340.615 546.452 336.89 552.584 327.447 554.057C324.446 554.505 321.395 554.505 318.394 554.057V554.057C308.951 552.584 305.226 546.452 303.826 540.928C303.051 537.781 302.84 534.521 303.203 531.3H297.616C297.616 531.3 299.322 544.968 286.353 558.277C286.031 558.608 285.788 559.007 285.642 559.445C285.497 559.883 285.452 560.348 285.512 560.806L285.465 560.869L288.895 574.24C291.995 586.323 291.721 614.44 288.13 629.37C288.001 629.89 287.991 630.433 288.103 630.957C288.214 631.481 288.443 631.973 288.773 632.395C289.102 632.818 289.523 633.16 290.004 633.395C290.486 633.631 291.014 633.755 291.55 633.756L354.25 633.757Z" fill="white"/>
<path d="M354.25 633.757C354.786 633.755 355.314 633.632 355.795 633.396C356.276 633.161 356.698 632.819 357.027 632.396C357.357 631.974 357.586 631.482 357.697 630.958C357.809 630.434 357.8 629.891 357.671 629.371C354.079 614.437 353.806 586.324 356.905 574.241L360.335 560.87L360.329 560.807C360.389 560.349 360.344 559.884 360.198 559.446C360.053 559.008 359.81 558.609 359.488 558.278C346.519 544.969 348.228 531.3 348.228 531.3H342.638C343.001 534.521 342.79 537.781 342.015 540.928C340.615 546.452 336.89 552.584 327.447 554.057C324.446 554.505 321.395 554.505 318.394 554.057V554.057C308.951 552.584 305.226 546.452 303.826 540.928C303.051 537.781 302.84 534.521 303.203 531.3H297.616C297.616 531.3 299.322 544.968 286.353 558.277C286.031 558.608 285.788 559.007 285.642 559.445C285.497 559.883 285.452 560.348 285.512 560.806L285.465 560.869L288.895 574.24C291.995 586.323 291.721 614.44 288.13 629.37C288.001 629.89 287.991 630.433 288.103 630.957C288.214 631.481 288.443 631.973 288.773 632.395C289.102 632.818 289.523 633.16 290.004 633.395C290.486 633.631 291.014 633.755 291.55 633.756L354.25 633.757Z" fill="#E92EFB"/>
<path opacity="0.48" d="M354.25 633.757C354.786 633.755 355.314 633.632 355.795 633.396C356.276 633.161 356.698 632.819 357.027 632.396C357.357 631.974 357.586 631.482 357.697 630.958C357.809 630.434 357.8 629.891 357.671 629.371C354.079 614.437 353.806 586.324 356.905 574.241L360.335 560.87L360.329 560.807C360.389 560.349 360.344 559.884 360.198 559.446C360.053 559.008 359.81 558.609 359.488 558.278C346.519 544.969 348.228 531.3 348.228 531.3H342.638C343.001 534.521 342.79 537.781 342.015 540.928C340.615 546.452 336.89 552.584 327.447 554.057C324.446 554.505 321.395 554.505 318.394 554.057V554.057C308.951 552.584 305.226 546.452 303.826 540.928C303.051 537.781 302.84 534.521 303.203 531.3H297.616C297.616 531.3 299.322 544.968 286.353 558.277C286.031 558.608 285.788 559.007 285.642 559.445C285.497 559.883 285.452 560.348 285.512 560.806L285.465 560.869L288.895 574.24C291.995 586.323 291.721 614.44 288.13 629.37C288.001 629.89 287.991 630.433 288.103 630.957C288.214 631.481 288.443 631.973 288.773 632.395C289.102 632.818 289.523 633.16 290.004 633.395C290.486 633.631 291.014 633.755 291.55 633.756L354.25 633.757Z" fill="white"/>
<path d="M678.056 830.035C678.056 830.035 673.541 853.435 651.628 854.743C629.715 856.051 634.467 873.505 634.467 873.505H718.206V831.667L678.056 830.035Z" fill="#04005E"/>
<path d="M703.885 403.105C703.885 403.105 703.622 396.069 703.678 412.028C703.885 471.558 704.918 539.553 707.442 579.343C711.499 643.307 721.902 844.971 721.902 844.971L666.876 844.509L613.543 400.686L703.885 403.105Z" fill="#262626"/>
<path d="M641.746 473.3C641.746 473.3 639.465 516.5 639.046 526.641C638.068 550.096 637.728 574.381 637.728 601.914L629.055 529.734C629.055 529.734 635.398 507.116 641.746 473.3Z" fill="#0A0A0A"/>
<path d="M580.095 830.035C580.095 830.035 575.58 853.435 553.667 854.743C531.754 856.051 536.506 873.505 536.506 873.505H620.245V831.667L580.095 830.035Z" fill="#04005E"/>
<path d="M553.452 407.727C553.452 407.727 548.578 611.183 549.292 621.127L569.756 843.427L623.872 844.427L618.599 613.084C618.599 613.084 622.318 549.268 637.737 490.011C645.626 459.598 650.374 428.455 651.906 397.073L553.452 407.727Z" fill="#262626"/>
<path d="M704.483 403.1L704.663 403.11C704.663 403.11 704.533 399.638 704.483 403.1Z" fill="#333333"/>
<path d="M545.706 294.8C546.841 308.132 552.361 391.309 553.452 407.731H703.828C704.678 392.92 708.492 328.156 711.713 299.193C714.788 271.555 720.821 257.717 716.399 249.547C709.173 236.193 689.427 228.476 675.963 226.653C667.741 225.54 655.376 224.742 655.376 224.742C655.376 224.742 654.328 245.919 629.359 247.1C595.374 248.7 597.643 224.741 597.475 224.741C591.969 224.741 559.909 227.33 552.822 232.787C540.428 242.329 543.297 266.543 545.706 294.8Z" fill="#04005E"/>
<path d="M543.628 278.09C543.5 278.09 543.377 278.042 543.284 277.954C543.191 277.866 543.135 277.747 543.128 277.619L541.915 256.448C541.907 256.316 541.952 256.186 542.041 256.087C542.129 255.988 542.252 255.928 542.385 255.92C542.517 255.914 542.646 255.959 542.745 256.047C542.843 256.135 542.904 256.258 542.913 256.39L544.126 277.561C544.133 277.693 544.088 277.823 544 277.922C543.912 278.021 543.788 278.081 543.656 278.089L543.628 278.09Z" fill="#0C0C0C"/>
<path d="M736.334 406.856C740.757 406.855 745.114 405.786 749.035 403.739C752.955 401.693 756.324 398.729 758.853 395.101C761.382 391.472 762.997 387.286 763.56 382.9C764.124 378.513 763.619 374.055 762.089 369.905C760.536 365.692 724.115 269.249 717.182 251.379L665.843 272.179C669.743 282.227 683.866 320.311 695.214 350.99L676.362 348.941L670.428 403.528L733.363 406.695C734.35 406.802 735.341 406.856 736.334 406.856Z" fill="#04005E"/>
<path d="M579.56 222.912C579.728 222.89 584.341 240.248 620.338 237.547C645.258 235.68 651.338 218.717 651.906 218.717C649.219 218.146 644.856 217.553 643.662 216.917C639.738 214.809 636.88 212.242 635.441 206.734C634.316 202.426 633.741 185.843 633.741 177.523L595.394 186.14C595.929 195.525 599.67 217.283 586.558 221.134C584.377 221.77 582.028 222.356 579.56 222.912Z" fill="#E98862"/>
<path d="M596.722 204.591C611.84 205.783 631.259 199.401 634.948 179.232L638.276 161.032C641.965 140.863 634.362 122.575 615.371 119.102C596.381 115.629 579.196 129.383 575.508 149.552L574.034 157.609C572.619 165.349 569.75 202.463 596.722 204.591Z" fill="#E98862"/>
<path d="M582.705 186.073C585.418 172.438 586.663 163.342 586.518 153.745C582.696 147.045 583.701 139.345 584.57 136.021C581.938 137.693 578.844 138.487 575.732 138.288C575.732 138.288 582.052 112.92 603.537 106.094C607.487 104.556 617.574 102.614 630.967 104.451C642.358 106.013 670.438 114.531 674.45 146.143V146.161C674.582 147.209 677.279 176.336 682.65 190.311C689.876 209.098 700.02 214.935 699.763 236.611C699.432 264.492 648.175 268.203 617.263 266.117C586.351 264.031 569.089 253.866 568.863 233.773C568.617 211.26 577.275 213.351 582.705 186.073Z" fill="#0A0A0A"/>
<path d="M707.035 299.749L703.34 407.714L704.34 407.748L708.035 299.783L707.035 299.749Z" fill="#0C0C0C"/>
<path d="M380.828 176.339L396.988 195.425L395.988 192.148C395.686 191.084 395.799 189.945 396.305 188.961C396.811 187.977 397.671 187.222 398.712 186.848C399.256 186.674 399.83 186.612 400.399 186.667C400.967 186.722 401.519 186.892 402.02 187.167C402.521 187.442 402.96 187.816 403.312 188.266C403.663 188.717 403.919 189.234 404.064 189.787L411.451 217.605C412.384 221.117 411.907 224.854 410.123 228.019C408.339 231.185 405.389 233.527 401.902 234.548C397.853 235.733 393.543 235.683 389.524 234.402C385.504 233.122 381.959 230.671 379.342 227.362L367.514 212.353C366.884 211.585 366.539 210.623 366.538 209.63C366.536 208.637 366.877 207.674 367.504 206.904C368.084 206.22 368.867 205.739 369.74 205.532C370.613 205.326 371.529 205.404 372.354 205.755C372.366 205.707 372.388 205.663 372.419 205.624C372.449 205.585 372.487 205.552 372.53 205.528C372.573 205.504 372.621 205.49 372.67 205.485C372.719 205.48 372.769 205.485 372.816 205.5L370.625 202.73C369.954 201.918 369.599 200.89 369.626 199.837C369.653 198.784 370.061 197.776 370.773 197C371.502 196.254 372.482 195.806 373.523 195.742C374.564 195.679 375.591 196.006 376.405 196.658C376.411 196.614 376.424 196.57 376.446 196.531L375.546 195.395C374.959 194.617 374.638 193.671 374.63 192.696C374.623 191.721 374.929 190.77 375.504 189.983C376.206 189.136 377.213 188.597 378.308 188.483C379.402 188.368 380.498 188.687 381.361 189.371L381.419 189.314L374.629 181.295C374.281 180.884 374.02 180.406 373.862 179.891C373.705 179.375 373.654 178.833 373.713 178.297C373.772 177.762 373.939 177.244 374.205 176.775C374.471 176.306 374.829 175.897 375.259 175.571C376.112 174.97 377.161 174.715 378.195 174.857C379.228 175 380.169 175.529 380.828 176.339Z" fill="#E98862"/>
<path opacity="0.2" d="M381.195 189.817C381.211 189.86 381.235 189.9 381.266 189.934L387.951 197.647C388.023 197.711 388.117 197.747 388.213 197.747C388.31 197.748 388.404 197.713 388.477 197.65C388.55 197.587 388.598 197.499 388.612 197.403C388.625 197.308 388.604 197.21 388.551 197.129L381.865 189.417C381.804 189.347 381.72 189.301 381.629 189.286C381.537 189.272 381.443 189.29 381.364 189.338C381.284 189.385 381.224 189.46 381.194 189.547C381.163 189.635 381.165 189.73 381.198 189.817H381.195Z" fill="#0C0C0C"/>
<path opacity="0.2" d="M376.414 196.838C376.43 196.88 376.453 196.919 376.483 196.953L381.69 203.053C381.762 203.114 381.854 203.148 381.949 203.147C382.044 203.147 382.136 203.113 382.208 203.051C382.28 202.99 382.328 202.904 382.343 202.811C382.358 202.717 382.339 202.621 382.29 202.54L377.082 196.44C377.019 196.374 376.936 196.332 376.846 196.319C376.756 196.307 376.665 196.326 376.587 196.372C376.509 196.419 376.449 196.49 376.417 196.575C376.386 196.66 376.384 196.754 376.412 196.84L376.414 196.838Z" fill="#0C0C0C"/>
<path opacity="0.2" d="M372.35 206.016C372.366 206.061 372.392 206.103 372.425 206.138L374.951 208.963C374.982 209.011 375.024 209.053 375.073 209.084C375.121 209.114 375.176 209.134 375.233 209.142C375.291 209.15 375.349 209.145 375.404 209.128C375.459 209.111 375.51 209.082 375.553 209.044C375.596 209.005 375.631 208.958 375.654 208.905C375.677 208.852 375.688 208.795 375.687 208.737C375.685 208.679 375.671 208.622 375.646 208.57C375.621 208.518 375.585 208.473 375.54 208.436L373.013 205.611C372.949 205.548 372.866 205.508 372.778 205.498C372.689 205.487 372.599 205.507 372.523 205.554C372.446 205.6 372.388 205.671 372.356 205.755C372.325 205.839 372.323 205.931 372.35 206.016V206.016Z" fill="#0C0C0C"/>
<path d="M460.595 356.05C455.508 356.05 450.507 354.734 446.079 352.231C441.65 349.728 437.944 346.122 435.321 341.764L369.933 233.135L420.482 202.707L470.191 285.288L552.822 232.788L587.828 279.725L476.562 351.355C471.8 354.419 466.257 356.049 460.595 356.05V356.05Z" fill="#04005E"/>
<path d="M546.543 306.779C546.431 306.779 546.322 306.741 546.234 306.672C546.146 306.602 546.084 306.506 546.058 306.397C546.031 306.288 546.042 306.174 546.089 306.072C546.135 305.97 546.214 305.886 546.314 305.835L560.592 298.468C560.71 298.407 560.847 298.396 560.973 298.436C561.1 298.476 561.205 298.565 561.266 298.683C561.327 298.801 561.338 298.938 561.298 299.064C561.258 299.191 561.169 299.296 561.051 299.357L546.773 306.724C546.702 306.76 546.623 306.779 546.543 306.779V306.779Z" fill="#0C0C0C"/>
<path d="M319.215 872.312H283.805L269.473 727.198H304.883L319.215 872.312Z" fill="#04005E"/>
<path opacity="0.21" d="M319.215 872.312H283.805L269.473 727.198H304.883L319.215 872.312Z" fill="#0A0A0A"/>
<path d="M283.805 872.312H145.984L160.316 727.198H269.473L283.805 872.312Z" fill="#04005E"/>
<path d="M214.896 786.575C210.86 786.575 206.864 785.78 203.136 784.236C199.407 782.691 196.02 780.428 193.166 777.574C190.312 774.72 188.049 771.333 186.505 767.604C184.96 763.876 184.166 759.88 184.166 755.844V742.7C184.16 742.476 184.2 742.252 184.282 742.043C184.364 741.835 184.487 741.644 184.644 741.484C184.801 741.323 184.988 741.195 185.195 741.108C185.402 741.021 185.624 740.976 185.848 740.976C186.073 740.976 186.295 741.021 186.502 741.108C186.709 741.195 186.896 741.323 187.053 741.484C187.21 741.644 187.333 741.835 187.415 742.043C187.497 742.252 187.536 742.476 187.531 742.7V755.842C187.531 763.1 190.414 770.06 195.546 775.192C200.678 780.324 207.638 783.207 214.896 783.207C222.153 783.207 229.114 780.324 234.246 775.192C239.378 770.06 242.261 763.1 242.261 755.842V742.7C242.261 742.254 242.438 741.826 242.754 741.51C243.069 741.194 243.497 741.017 243.944 741.017C244.39 741.017 244.818 741.194 245.134 741.51C245.449 741.826 245.627 742.254 245.627 742.7V755.842C245.618 763.99 242.378 771.802 236.616 777.563C230.855 783.325 223.044 786.566 214.896 786.575V786.575Z" fill="white"/>
<path opacity="0.08" d="M269.473 727.198L289.022 746.266L304.883 727.198H269.473Z" fill="#0A0A0A"/>
<path opacity="0.08" d="M283.805 872.312L299.62 853.244L319.215 872.312H283.805Z" fill="#0A0A0A"/>
<path d="M752.27 874.277H0.800798C0.697014 874.281 0.593541 874.264 0.496557 874.226C0.399573 874.189 0.311068 874.133 0.236325 874.061C0.161582 873.989 0.102134 873.902 0.06153 873.807C0.0209265 873.711 0 873.608 0 873.505C0 873.401 0.0209265 873.298 0.06153 873.202C0.102134 873.107 0.161582 873.02 0.236325 872.948C0.311068 872.876 0.399573 872.82 0.496557 872.783C0.593541 872.745 0.697014 872.728 0.800798 872.732H752.27C752.374 872.728 752.477 872.745 752.574 872.783C752.671 872.82 752.759 872.876 752.834 872.948C752.909 873.02 752.968 873.107 753.009 873.202C753.05 873.298 753.071 873.401 753.071 873.505C753.071 873.608 753.05 873.711 753.009 873.807C752.968 873.902 752.909 873.989 752.834 874.061C752.759 874.133 752.671 874.189 752.574 874.226C752.477 874.264 752.374 874.281 752.27 874.277V874.277Z" fill="#3F3F3F"/>
</svg>
